<?xml version="1.0" encoding="UTF-8" standalone="no"?>
<svg width="40px" height="79px" viewBox="0 0 40 79" version="1.1" xmlns="http://www.w3.org/2000/svg" xmlns:xlink="http://www.w3.org/1999/xlink" xmlns:sketch="http://www.bohemiancoding.com/sketch/ns">
    <title>pattern4</title>
    <description>Created with Sketch (http://www.bohemiancoding.com/sketch)</description>
    <defs></defs>
    <g id="Page-1" stroke="none" stroke-width="1" fill="none" fill-rule="evenodd" sketch:type="MSPage">
        <g id="I&amp;I_icon" sketch:type="MSLayerGroup" transform="translate(-28.000000, -7.000000)" fill="#010101">
            <path d="M67.868,49.989 C67.868,49.989 67.49,50.882 66.738,52.512 C65.986,54.145 64.853,56.521 63.298,59.49 C61.739,62.457 59.762,66.022 57.183,69.938 C55.894,71.895 54.451,73.94 52.765,75.986 C51.077,78.025 49.17,80.098 46.812,81.926 C45.6,82.798 44.325,83.678 42.807,84.251 C42.082,84.596 41.251,84.75 40.443,84.948 C39.597,85.026 38.743,85.127 37.873,84.977 C36.155,84.753 34.45,84.023 33.146,82.898 C31.783,81.844 30.635,80.563 29.708,79.019 C28.818,77.472 28.266,75.617 28.335,73.755 C28.359,71.89 28.933,70.09 29.727,68.462 C31.355,65.194 33.836,62.493 36.517,60.054 C37.869,58.837 39.288,57.683 40.765,56.592 C41.495,56.063 42.228,55.531 42.964,54.999 C43.672,54.459 44.379,53.894 45.075,53.314 C47.863,50.993 50.56,48.478 53.084,45.774 C55.601,43.069 57.966,40.171 59.898,37.01 C61.806,33.865 63.331,30.376 63.466,26.792 C63.556,23.167 62.592,19.499 60.643,16.453 C59.657,14.939 58.455,13.574 57.076,12.419 C55.698,11.261 54.115,10.374 52.459,9.731 C50.799,9.106 49.042,8.704 47.281,8.705 C45.533,8.688 43.801,9.019 42.156,9.612 C38.883,10.857 36.026,13.086 33.931,15.796 C31.827,18.501 30.481,21.736 30.265,24.993 C30.125,26.631 30.411,28.208 30.831,29.754 C31.344,31.279 31.981,32.76 32.768,34.159 C34.309,36.97 36.122,39.564 37.953,42.013 C39.77,44.473 41.622,46.787 43.408,49.003 C50.603,57.831 56.809,65.04 61.088,70.135 C65.38,75.221 67.833,78.127 67.833,78.127 C67.833,78.127 65.353,75.242 61.012,70.194 C56.684,65.136 50.411,57.985 43.125,49.214 C41.317,47.011 39.44,44.709 37.594,42.257 C35.735,39.817 33.886,37.228 32.298,34.39 C31.489,32.978 30.823,31.47 30.279,29.899 C29.827,28.305 29.523,26.636 29.65,24.929 C29.852,21.526 31.227,18.158 33.383,15.337 C35.535,12.512 38.472,10.174 41.903,8.837 C43.626,8.2 45.466,7.835 47.331,7.842 C49.198,7.832 51.061,8.235 52.822,8.889 C54.58,9.556 56.255,10.49 57.725,11.697 C59.191,12.907 60.472,14.343 61.526,15.94 C63.615,19.152 64.664,23.024 64.591,26.877 C64.462,30.778 62.865,34.433 60.926,37.697 C58.955,40.975 56.564,43.951 54.025,46.728 C51.479,49.502 48.766,52.074 45.949,54.461 C45.244,55.057 44.532,55.64 43.8,56.204 C43.066,56.746 42.334,57.287 41.605,57.825 C40.171,58.907 38.801,60.047 37.504,61.239 C34.931,63.623 32.601,66.26 31.169,69.24 C30.472,70.724 30.012,72.301 30.019,73.854 C29.993,75.408 30.461,76.909 31.243,78.208 C32.036,79.491 33.108,80.666 34.299,81.542 C35.443,82.492 36.803,83.035 38.165,83.177 C38.847,83.298 39.536,83.176 40.214,83.118 C40.882,82.932 41.555,82.806 42.183,82.493 C43.469,81.986 44.626,81.181 45.718,80.363 C47.873,78.651 49.683,76.651 51.287,74.666 C52.891,72.674 54.282,70.668 55.522,68.739 C58.005,64.881 59.921,61.347 61.428,58.408 C62.935,55.466 64.028,53.108 64.752,51.495 C65.476,49.882 65.829,49.021 65.829,49.021 L67.868,49.989 L67.868,49.989 Z" id="Shape" sketch:type="MSShapeGroup"></path>
        </g>
    </g>
</svg>