<?xml version="1.0" encoding="UTF-8" standalone="no"?>
<svg width="7px" height="79px" viewBox="0 0 7 79" version="1.1" xmlns="http://www.w3.org/2000/svg" xmlns:xlink="http://www.w3.org/1999/xlink" xmlns:sketch="http://www.bohemiancoding.com/sketch/ns">
    <title>pattern1</title>
    <description>Created with Sketch (http://www.bohemiancoding.com/sketch)</description>
    <defs></defs>
    <g id="Page-1" stroke="none" stroke-width="1" fill="none" fill-rule="evenodd" sketch:type="MSPage">
        <g id="I&amp;I_icon" sketch:type="MSLayerGroup" transform="translate(-44.000000, -7.000000)" fill="#616161">
            <path d="M47.911,7.889 L47.903,7.952 C47.903,7.952 44.88,10.456 45.235,17.253 C45.591,24.05 46.658,24.945 46.302,31.742 C45.952,38.437 44.393,77.232 45.197,85.065 L45.187,85.338 C45.195,85.295 45.204,85.246 45.212,85.202 C45.22,85.268 45.227,85.341 45.235,85.402 L45.249,85.003 C46.594,77.246 47.737,38.435 47.854,31.732 C47.971,24.926 49.098,24.11 49.925,17.354 C50.754,10.6 47.911,7.889 47.911,7.889 L47.911,7.889 Z" id="Shape" sketch:type="MSShapeGroup"></path>
        </g>
    </g>
</svg>